<?xml version="1.0" encoding="utf-8"?>
<svg xmlns="http://www.w3.org/2000/svg" viewBox="0 0 1240 310">
  <g>
    <rect fill="#51da4c" height="10" width="360" x="0" y="0"/>
    <rect fill="#ffffff" height="10" width="540" x="410" y="0"/>
    <rect fill="#ffffff" height="10" width="180" x="1000" y="0"/>
    <rect fill="#ffffff" height="10" width="180" x="2000" y="0"/>
    <rect fill="#ffffff" height="10" width="360" x="2640" y="0"/>
    <rect fill="#51da4c" height="10" width="360" x="2230" y="0"/>
    <rect fill="#51da4c" height="10" width="720" x="1230" y="0"/>
    <rect fill="#51da4c" height="10" width="360" x="3050" y="0"/>
    <rect fill="#ffffff" height="10" width="540" x="3460" y="0"/>
    <rect fill="#ffffff" height="10" width="180" x="4050" y="0"/>
    <rect fill="#ffffff" height="10" width="180" x="5050" y="0"/>
    <rect fill="#ffffff" height="10" width="360" x="5690" y="0"/>
    <rect fill="#51da4c" height="10" width="360" x="5280" y="0"/>
    <rect fill="#51da4c" height="10" width="720" x="4280" y="0"/>
    <animateTransform attributeName="transform" attributeType="XML" dur="15s" from="-3050" repeatCount="indefinite" to="0" type="translate"/>
  </g>
  <g>
    <rect fill="#51da4c" height="10" width="180" x="1770" y="60"/>
    <rect fill="#ffffff" height="10" width="360" x="590" y="60"/>
    <rect fill="#ffffff" height="10" width="540" x="2590" y="60"/>
    <rect fill="#51da4c" height="10" width="540" x="2000" y="60"/>
    <rect fill="#51da4c" height="10" width="540" x="0" y="60"/>
    <rect fill="#ffffff" height="10" width="720" x="1000" y="60"/>
    <rect fill="#51da4c" height="10" width="180" x="4950" y="60"/>
    <rect fill="#ffffff" height="10" width="360" x="3770" y="60"/>
    <rect fill="#ffffff" height="10" width="540" x="5770" y="60"/>
    <rect fill="#51da4c" height="10" width="540" x="5180" y="60"/>
    <rect fill="#51da4c" height="10" width="540" x="3180" y="60"/>
    <rect fill="#ffffff" height="10" width="720" x="4180" y="60"/>
    <animateTransform attributeName="transform" attributeType="XML" dur="20s" from="0" repeatCount="indefinite" to="-3180" type="translate"/>
  </g>
  <g>
    <rect fill="#ffffff" height="10" width="180" x="230" y="120"/>
    <rect fill="#51da4c" height="10" width="180" x="0" y="120"/>
    <rect fill="#ffffff" height="10" width="360" x="2640" y="120"/>
    <rect fill="#ffffff" height="10" width="360" x="1640" y="120"/>
    <rect fill="#51da4c" height="10" width="360" x="1230" y="120"/>
    <rect fill="#51da4c" height="10" width="540" x="2050" y="120"/>
    <rect fill="#51da4c" height="10" width="720" x="460" y="120"/>
    <rect fill="#ffffff" height="10" width="180" x="3280" y="120"/>
    <rect fill="#51da4c" height="10" width="180" x="3050" y="120"/>
    <rect fill="#ffffff" height="10" width="360" x="5690" y="120"/>
    <rect fill="#ffffff" height="10" width="360" x="4690" y="120"/>
    <rect fill="#51da4c" height="10" width="360" x="4280" y="120"/>
    <rect fill="#51da4c" height="10" width="540" x="5100" y="120"/>
    <rect fill="#51da4c" height="10" width="720" x="3510" y="120"/>
    <animateTransform attributeName="transform" attributeType="XML" dur="25s" from="-3050" repeatCount="indefinite" to="0" type="translate"/>
  </g>
  <g>
    <rect fill="#51da4c" height="10" width="180" x="1820" y="180"/>
    <rect fill="#ffffff" height="10" width="180" x="1180" y="180"/>
    <rect fill="#51da4c" height="10" width="360" x="2820" y="180"/>
    <rect fill="#ffffff" height="10" width="360" x="1410" y="180"/>
    <rect fill="#51da4c" height="10" width="540" x="590" y="180"/>
    <rect fill="#ffffff" height="10" width="540" x="0" y="180"/>
    <rect fill="#ffffff" height="10" width="720" x="2050" y="180"/>
    <rect fill="#51da4c" height="10" width="180" x="5050" y="180"/>
    <rect fill="#ffffff" height="10" width="180" x="4410" y="180"/>
    <rect fill="#51da4c" height="10" width="360" x="6050" y="180"/>
    <rect fill="#ffffff" height="10" width="360" x="4640" y="180"/>
    <rect fill="#51da4c" height="10" width="540" x="3820" y="180"/>
    <rect fill="#ffffff" height="10" width="540" x="3230" y="180"/>
    <rect fill="#ffffff" height="10" width="720" x="5280" y="180"/>
    <animateTransform attributeName="transform" attributeType="XML" dur="15s" from="0" repeatCount="indefinite" to="-3230" type="translate"/>
  </g>
  <g>
    <rect fill="#ffffff" height="10" width="180" x="3050" y="240"/>
    <rect fill="#ffffff" height="10" width="180" x="2230" y="240"/>
    <rect fill="#51da4c" height="10" width="180" x="410" y="240"/>
    <rect fill="#ffffff" height="10" width="360" x="1820" y="240"/>
    <rect fill="#51da4c" height="10" width="360" x="0" y="240"/>
    <rect fill="#51da4c" height="10" width="540" x="2460" y="240"/>
    <rect fill="#51da4c" height="10" width="540" x="1230" y="240"/>
    <rect fill="#ffffff" height="10" width="540" x="640" y="240"/>
    <rect fill="#ffffff" height="10" width="180" x="6330" y="240"/>
    <rect fill="#ffffff" height="10" width="180" x="5510" y="240"/>
    <rect fill="#51da4c" height="10" width="180" x="3690" y="240"/>
    <rect fill="#ffffff" height="10" width="360" x="5100" y="240"/>
    <rect fill="#51da4c" height="10" width="360" x="3280" y="240"/>
    <rect fill="#51da4c" height="10" width="540" x="5740" y="240"/>
    <rect fill="#51da4c" height="10" width="540" x="4510" y="240"/>
    <rect fill="#ffffff" height="10" width="540" x="3920" y="240"/>
    <animateTransform attributeName="transform" attributeType="XML" dur="20s" from="-3280" repeatCount="indefinite" to="0" type="translate"/>
  </g>
  <g>
    <rect fill="#51da4c" height="10" width="180" x="770" y="300"/>
    <rect fill="#ffffff" height="10" width="360" x="2180" y="300"/>
    <rect fill="#51da4c" height="10" width="360" x="1770" y="300"/>
    <rect fill="#51da4c" height="10" width="540" x="2590" y="300"/>
    <rect fill="#ffffff" height="10" width="720" x="1000" y="300"/>
    <rect fill="#ffffff" height="10" width="720" x="0" y="300"/>
    <rect fill="#51da4c" height="10" width="180" x="3950" y="300"/>
    <rect fill="#ffffff" height="10" width="360" x="5360" y="300"/>
    <rect fill="#51da4c" height="10" width="360" x="4950" y="300"/>
    <rect fill="#51da4c" height="10" width="540" x="5770" y="300"/>
    <rect fill="#ffffff" height="10" width="720" x="4180" y="300"/>
    <rect fill="#ffffff" height="10" width="720" x="3180" y="300"/>
    <animateTransform attributeName="transform" attributeType="XML" dur="15s" from="0" repeatCount="indefinite" to="-3180" type="translate"/>
  </g>
</svg>